<svg width="1440" height="779" viewBox="0 0 1440 779" fill="none" xmlns="http://www.w3.org/2000/svg">
<mask id="mask0_97_160" style="mask-type:alpha" maskUnits="userSpaceOnUse" x="0" y="0" width="1440" height="779">
<rect width="1440" height="779" fill="#C4C4C4"/>
</mask>
<g mask="url(#mask0_97_160)">
<g opacity="0.32">
<g opacity="0.11">
<g opacity="0.11">
<path opacity="0.11" d="M86.9335 68.9389C86.9335 70.51 85.6499 71.7445 84.0162 71.7445C82.3826 71.7445 81.099 70.51 81.099 68.9389C81.099 67.3678 82.3826 66.1333 84.0162 66.1333C85.6499 66.2455 86.9335 67.48 86.9335 68.9389Z" fill="#A630B0"/>
<path opacity="0.11" d="M208.524 68.9389C208.524 70.51 207.24 71.7445 205.607 71.7445C203.973 71.7445 202.689 70.51 202.689 68.9389C202.689 67.3678 203.973 66.1333 205.607 66.1333C207.24 66.2455 208.524 67.48 208.524 68.9389Z" fill="#A630B0"/>
<path opacity="0.11" d="M330.115 68.9389C330.115 70.51 328.831 71.7445 327.197 71.7445C325.564 71.7445 324.28 70.51 324.28 68.9389C324.28 67.3678 325.564 66.1333 327.197 66.1333C328.831 66.2455 330.115 67.48 330.115 68.9389Z" fill="#A630B0"/>
<path opacity="0.11" d="M451.705 68.9389C451.705 70.51 450.422 71.7445 448.788 71.7445C447.154 71.7445 445.871 70.51 445.871 68.9389C445.871 67.3678 447.154 66.1333 448.788 66.1333C450.422 66.2455 451.705 67.48 451.705 68.9389Z" fill="#A630B0"/>
<path opacity="0.11" d="M573.296 68.9389C573.296 70.51 572.012 71.7445 570.378 71.7445C568.745 71.7445 567.461 70.51 567.461 68.9389C567.461 67.3678 568.745 66.1333 570.378 66.1333C572.012 66.2455 573.296 67.48 573.296 68.9389Z" fill="#A630B0"/>
<path opacity="0.11" d="M694.886 68.9389C694.886 70.51 693.603 71.7445 691.969 71.7445C690.335 71.7445 689.052 70.51 689.052 68.9389C689.052 67.3678 690.335 66.1333 691.969 66.1333C693.603 66.2455 694.886 67.48 694.886 68.9389Z" fill="#A630B0"/>
<path opacity="0.11" d="M816.477 68.9389C816.477 70.51 815.193 71.7445 813.56 71.7445C811.926 71.7445 810.642 70.51 810.642 68.9389C810.642 67.3678 811.926 66.1333 813.56 66.1333C815.193 66.2455 816.477 67.48 816.477 68.9389Z" fill="#A630B0"/>
<path opacity="0.11" d="M938.067 68.9389C938.067 70.51 936.784 71.7445 935.15 71.7445C933.516 71.7445 932.233 70.51 932.233 68.9389C932.233 67.3678 933.516 66.1333 935.15 66.1333C936.784 66.2455 938.067 67.48 938.067 68.9389Z" fill="#A630B0"/>
<path opacity="0.11" d="M1059.66 68.9389C1059.66 70.51 1058.37 71.7445 1056.74 71.7445C1055.11 71.7445 1053.82 70.51 1053.82 68.9389C1053.82 67.3678 1055.11 66.1333 1056.74 66.1333C1058.37 66.2455 1059.66 67.48 1059.66 68.9389Z" fill="#A630B0"/>
<path opacity="0.11" d="M1181.25 68.9389C1181.25 70.51 1179.96 71.7445 1178.33 71.7445C1176.7 71.7445 1175.41 70.51 1175.41 68.9389C1175.41 67.3678 1176.7 66.1333 1178.33 66.1333C1179.96 66.2455 1181.25 67.48 1181.25 68.9389Z" fill="#A630B0"/>
<path opacity="0.11" d="M1302.84 68.9389C1302.84 70.51 1301.56 71.7445 1299.92 71.7445C1298.29 71.7445 1297 70.51 1297 68.9389C1297 67.3678 1298.29 66.1333 1299.92 66.1333C1301.56 66.2455 1302.84 67.48 1302.84 68.9389Z" fill="#A630B0"/>
</g>
<g opacity="0.11">
<path opacity="0.11" d="M86.9335 180.939C86.9335 182.51 85.6499 183.744 84.0162 183.744C82.3826 183.744 81.099 182.51 81.099 180.939C81.099 179.368 82.3826 178.133 84.0162 178.133C85.6499 178.246 86.9335 179.48 86.9335 180.939Z" fill="#A630B0"/>
<path opacity="0.11" d="M208.524 180.939C208.524 182.51 207.24 183.744 205.607 183.744C203.973 183.744 202.689 182.51 202.689 180.939C202.689 179.368 203.973 178.133 205.607 178.133C207.24 178.246 208.524 179.48 208.524 180.939Z" fill="#A630B0"/>
<path opacity="0.11" d="M330.115 180.939C330.115 182.51 328.831 183.744 327.197 183.744C325.564 183.744 324.28 182.51 324.28 180.939C324.28 179.368 325.564 178.133 327.197 178.133C328.831 178.246 330.115 179.48 330.115 180.939Z" fill="#A630B0"/>
<path opacity="0.11" d="M451.705 180.939C451.705 182.51 450.422 183.744 448.788 183.744C447.154 183.744 445.871 182.51 445.871 180.939C445.871 179.368 447.154 178.133 448.788 178.133C450.422 178.246 451.705 179.48 451.705 180.939Z" fill="#A630B0"/>
<path opacity="0.11" d="M573.296 180.939C573.296 182.51 572.012 183.744 570.378 183.744C568.745 183.744 567.461 182.51 567.461 180.939C567.461 179.368 568.745 178.133 570.378 178.133C572.012 178.246 573.296 179.48 573.296 180.939Z" fill="#A630B0"/>
<path opacity="0.11" d="M694.886 180.939C694.886 182.51 693.603 183.744 691.969 183.744C690.335 183.744 689.052 182.51 689.052 180.939C689.052 179.368 690.335 178.133 691.969 178.133C693.603 178.246 694.886 179.48 694.886 180.939Z" fill="#A630B0"/>
<path opacity="0.11" d="M816.477 180.939C816.477 182.51 815.193 183.744 813.56 183.744C811.926 183.744 810.642 182.51 810.642 180.939C810.642 179.368 811.926 178.133 813.56 178.133C815.193 178.246 816.477 179.48 816.477 180.939Z" fill="#A630B0"/>
<path opacity="0.11" d="M938.067 180.939C938.067 182.51 936.784 183.744 935.15 183.744C933.516 183.744 932.233 182.51 932.233 180.939C932.233 179.368 933.516 178.133 935.15 178.133C936.784 178.246 938.067 179.48 938.067 180.939Z" fill="#A630B0"/>
<path opacity="0.11" d="M1059.66 180.939C1059.66 182.51 1058.37 183.744 1056.74 183.744C1055.11 183.744 1053.82 182.51 1053.82 180.939C1053.82 179.368 1055.11 178.133 1056.74 178.133C1058.37 178.246 1059.66 179.48 1059.66 180.939Z" fill="#A630B0"/>
<path opacity="0.11" d="M1181.25 180.939C1181.25 182.51 1179.96 183.744 1178.33 183.744C1176.7 183.744 1175.41 182.51 1175.41 180.939C1175.41 179.368 1176.7 178.133 1178.33 178.133C1179.96 178.246 1181.25 179.48 1181.25 180.939Z" fill="#A630B0"/>
<path opacity="0.11" d="M1302.84 180.939C1302.84 182.51 1301.56 183.744 1299.92 183.744C1298.29 183.744 1297 182.51 1297 180.939C1297 179.368 1298.29 178.133 1299.92 178.133C1301.56 178.246 1302.84 179.48 1302.84 180.939Z" fill="#A630B0"/>
</g>
<g opacity="0.11">
<path opacity="0.11" d="M86.9335 292.939C86.9335 294.51 85.6499 295.744 84.0162 295.744C82.3826 295.744 81.099 294.51 81.099 292.939C81.099 291.368 82.3826 290.133 84.0162 290.133C85.6499 290.133 86.9335 291.368 86.9335 292.939Z" fill="#A630B0"/>
<path opacity="0.11" d="M208.524 292.939C208.524 294.51 207.24 295.744 205.607 295.744C203.973 295.744 202.689 294.51 202.689 292.939C202.689 291.368 203.973 290.133 205.607 290.133C207.24 290.133 208.524 291.368 208.524 292.939Z" fill="#A630B0"/>
<path opacity="0.11" d="M330.115 292.939C330.115 294.51 328.831 295.744 327.197 295.744C325.564 295.744 324.28 294.51 324.28 292.939C324.28 291.368 325.564 290.133 327.197 290.133C328.831 290.133 330.115 291.368 330.115 292.939Z" fill="#A630B0"/>
<path opacity="0.11" d="M451.705 292.939C451.705 294.51 450.422 295.744 448.788 295.744C447.154 295.744 445.871 294.51 445.871 292.939C445.871 291.368 447.154 290.133 448.788 290.133C450.422 290.133 451.705 291.368 451.705 292.939Z" fill="#A630B0"/>
<path opacity="0.11" d="M573.296 292.939C573.296 294.51 572.012 295.744 570.378 295.744C568.745 295.744 567.461 294.51 567.461 292.939C567.461 291.368 568.745 290.133 570.378 290.133C572.012 290.133 573.296 291.368 573.296 292.939Z" fill="#A630B0"/>
<path opacity="0.11" d="M694.886 292.939C694.886 294.51 693.603 295.744 691.969 295.744C690.335 295.744 689.052 294.51 689.052 292.939C689.052 291.368 690.335 290.133 691.969 290.133C693.603 290.133 694.886 291.368 694.886 292.939Z" fill="#A630B0"/>
<path opacity="0.11" d="M816.477 292.939C816.477 294.51 815.193 295.744 813.56 295.744C811.926 295.744 810.642 294.51 810.642 292.939C810.642 291.368 811.926 290.133 813.56 290.133C815.193 290.133 816.477 291.368 816.477 292.939Z" fill="#A630B0"/>
<path opacity="0.11" d="M938.067 292.939C938.067 294.51 936.784 295.744 935.15 295.744C933.516 295.744 932.233 294.51 932.233 292.939C932.233 291.368 933.516 290.133 935.15 290.133C936.784 290.133 938.067 291.368 938.067 292.939Z" fill="#A630B0"/>
<path opacity="0.11" d="M1059.66 292.939C1059.66 294.51 1058.37 295.744 1056.74 295.744C1055.11 295.744 1053.82 294.51 1053.82 292.939C1053.82 291.368 1055.11 290.133 1056.74 290.133C1058.37 290.133 1059.66 291.368 1059.66 292.939Z" fill="#A630B0"/>
<path opacity="0.11" d="M1181.25 292.939C1181.25 294.51 1179.96 295.744 1178.33 295.744C1176.7 295.744 1175.41 294.51 1175.41 292.939C1175.41 291.368 1176.7 290.133 1178.33 290.133C1179.96 290.133 1181.25 291.368 1181.25 292.939Z" fill="#A630B0"/>
<path opacity="0.11" d="M1302.84 292.939C1302.84 294.51 1301.56 295.744 1299.92 295.744C1298.29 295.744 1297 294.51 1297 292.939C1297 291.368 1298.29 290.133 1299.92 290.133C1301.56 290.133 1302.84 291.368 1302.84 292.939Z" fill="#A630B0"/>
</g>
<g opacity="0.11">
<path opacity="0.11" d="M86.9335 404.937C86.9335 406.508 85.6499 407.743 84.0162 407.743C82.3826 407.743 81.099 406.508 81.099 404.937C81.099 403.366 82.3826 402.131 84.0162 402.131C85.6499 402.131 86.9335 403.366 86.9335 404.937Z" fill="#A630B0"/>
<path opacity="0.11" d="M208.524 404.937C208.524 406.508 207.24 407.743 205.607 407.743C203.973 407.743 202.689 406.508 202.689 404.937C202.689 403.366 203.973 402.131 205.607 402.131C207.24 402.131 208.524 403.366 208.524 404.937Z" fill="#A630B0"/>
<path opacity="0.11" d="M330.115 404.937C330.115 406.508 328.831 407.743 327.197 407.743C325.564 407.743 324.28 406.508 324.28 404.937C324.28 403.366 325.564 402.131 327.197 402.131C328.831 402.131 330.115 403.366 330.115 404.937Z" fill="#A630B0"/>
<path opacity="0.11" d="M448.788 407.743C450.399 407.743 451.705 406.486 451.705 404.937C451.705 403.387 450.399 402.131 448.788 402.131C447.177 402.131 445.871 403.387 445.871 404.937C445.871 406.486 447.177 407.743 448.788 407.743Z" fill="#A630B0"/>
<path opacity="0.11" d="M573.296 404.937C573.296 406.508 572.012 407.743 570.378 407.743C568.745 407.743 567.461 406.508 567.461 404.937C567.461 403.366 568.745 402.131 570.378 402.131C572.012 402.131 573.296 403.366 573.296 404.937Z" fill="#A630B0"/>
<path opacity="0.11" d="M694.886 404.937C694.886 406.508 693.603 407.743 691.969 407.743C690.335 407.743 689.052 406.508 689.052 404.937C689.052 403.366 690.335 402.131 691.969 402.131C693.603 402.131 694.886 403.366 694.886 404.937Z" fill="#A630B0"/>
<path opacity="0.11" d="M816.477 404.937C816.477 406.508 815.193 407.743 813.56 407.743C811.926 407.743 810.642 406.508 810.642 404.937C810.642 403.366 811.926 402.131 813.56 402.131C815.193 402.131 816.477 403.366 816.477 404.937Z" fill="#A630B0"/>
<path opacity="0.11" d="M938.067 404.937C938.067 406.508 936.784 407.743 935.15 407.743C933.516 407.743 932.233 406.508 932.233 404.937C932.233 403.366 933.516 402.131 935.15 402.131C936.784 402.131 938.067 403.366 938.067 404.937Z" fill="#A630B0"/>
<path opacity="0.11" d="M1059.66 404.937C1059.66 406.508 1058.37 407.743 1056.74 407.743C1055.11 407.743 1053.82 406.508 1053.82 404.937C1053.82 403.366 1055.11 402.131 1056.74 402.131C1058.37 402.131 1059.66 403.366 1059.66 404.937Z" fill="#A630B0"/>
<path opacity="0.11" d="M1181.25 404.937C1181.25 406.508 1179.96 407.743 1178.33 407.743C1176.7 407.743 1175.41 406.508 1175.41 404.937C1175.41 403.366 1176.7 402.131 1178.33 402.131C1179.96 402.131 1181.25 403.366 1181.25 404.937Z" fill="#A630B0"/>
<path opacity="0.11" d="M1302.84 404.937C1302.84 406.508 1301.56 407.743 1299.92 407.743C1298.29 407.743 1297 406.508 1297 404.937C1297 403.366 1298.29 402.131 1299.92 402.131C1301.56 402.131 1302.84 403.366 1302.84 404.937Z" fill="#A630B0"/>
</g>
<g opacity="0.11">
<path opacity="0.11" d="M86.9335 516.936C86.9335 518.507 85.6499 519.742 84.0162 519.742C82.3826 519.742 81.099 518.507 81.099 516.936C81.099 515.365 82.3826 514.13 84.0162 514.13C85.6499 514.13 86.9335 515.365 86.9335 516.936Z" fill="#A630B0"/>
<path opacity="0.11" d="M208.524 516.936C208.524 518.507 207.24 519.742 205.607 519.742C203.973 519.742 202.689 518.507 202.689 516.936C202.689 515.365 203.973 514.13 205.607 514.13C207.24 514.13 208.524 515.365 208.524 516.936Z" fill="#A630B0"/>
<path opacity="0.11" d="M330.115 516.936C330.115 518.507 328.831 519.742 327.197 519.742C325.564 519.742 324.28 518.507 324.28 516.936C324.28 515.365 325.564 514.13 327.197 514.13C328.831 514.13 330.115 515.365 330.115 516.936Z" fill="#A630B0"/>
<path opacity="0.11" d="M451.705 516.936C451.705 518.507 450.422 519.742 448.788 519.742C447.154 519.742 445.871 518.507 445.871 516.936C445.871 515.365 447.154 514.13 448.788 514.13C450.422 514.13 451.705 515.365 451.705 516.936Z" fill="#A630B0"/>
<path opacity="0.11" d="M573.296 516.936C573.296 518.507 572.012 519.742 570.378 519.742C568.745 519.742 567.461 518.507 567.461 516.936C567.461 515.365 568.745 514.13 570.378 514.13C572.012 514.13 573.296 515.365 573.296 516.936Z" fill="#A630B0"/>
<path opacity="0.11" d="M694.886 516.936C694.886 518.507 693.603 519.742 691.969 519.742C690.335 519.742 689.052 518.507 689.052 516.936C689.052 515.365 690.335 514.13 691.969 514.13C693.603 514.13 694.886 515.365 694.886 516.936Z" fill="#A630B0"/>
<path opacity="0.11" d="M816.477 516.936C816.477 518.507 815.193 519.742 813.56 519.742C811.926 519.742 810.642 518.507 810.642 516.936C810.642 515.365 811.926 514.13 813.56 514.13C815.193 514.13 816.477 515.365 816.477 516.936Z" fill="#A630B0"/>
<path opacity="0.11" d="M938.067 516.936C938.067 518.507 936.784 519.742 935.15 519.742C933.516 519.742 932.233 518.507 932.233 516.936C932.233 515.365 933.516 514.13 935.15 514.13C936.784 514.13 938.067 515.365 938.067 516.936Z" fill="#A630B0"/>
<path opacity="0.11" d="M1059.66 516.936C1059.66 518.507 1058.37 519.742 1056.74 519.742C1055.11 519.742 1053.82 518.507 1053.82 516.936C1053.82 515.365 1055.11 514.13 1056.74 514.13C1058.37 514.13 1059.66 515.365 1059.66 516.936Z" fill="#A630B0"/>
<path opacity="0.11" d="M1181.25 516.936C1181.25 518.507 1179.96 519.742 1178.33 519.742C1176.7 519.742 1175.41 518.507 1175.41 516.936C1175.41 515.365 1176.7 514.13 1178.33 514.13C1179.96 514.13 1181.25 515.365 1181.25 516.936Z" fill="#A630B0"/>
<path opacity="0.11" d="M1302.84 516.936C1302.84 518.507 1301.56 519.742 1299.92 519.742C1298.29 519.742 1297 518.507 1297 516.936C1297 515.365 1298.29 514.13 1299.92 514.13C1301.56 514.13 1302.84 515.365 1302.84 516.936Z" fill="#A630B0"/>
</g>
<g opacity="0.11">
<path opacity="0.11" d="M86.9335 628.935C86.9335 630.506 85.6499 631.741 84.0162 631.741C82.3826 631.741 81.099 630.506 81.099 628.935C81.099 627.364 82.3826 626.129 84.0162 626.129C85.6499 626.129 86.9335 627.364 86.9335 628.935Z" fill="#A630B0"/>
<path opacity="0.11" d="M208.524 628.935C208.524 630.506 207.24 631.741 205.607 631.741C203.973 631.741 202.689 630.506 202.689 628.935C202.689 627.364 203.973 626.129 205.607 626.129C207.24 626.129 208.524 627.364 208.524 628.935Z" fill="#A630B0"/>
<path opacity="0.11" d="M330.115 628.935C330.115 630.506 328.831 631.741 327.197 631.741C325.564 631.741 324.28 630.506 324.28 628.935C324.28 627.364 325.564 626.129 327.197 626.129C328.831 626.129 330.115 627.364 330.115 628.935Z" fill="#A630B0"/>
<path opacity="0.11" d="M451.705 628.935C451.705 630.506 450.422 631.741 448.788 631.741C447.154 631.741 445.871 630.506 445.871 628.935C445.871 627.364 447.154 626.129 448.788 626.129C450.422 626.129 451.705 627.364 451.705 628.935Z" fill="#A630B0"/>
<path opacity="0.11" d="M573.296 628.935C573.296 630.506 572.012 631.741 570.378 631.741C568.745 631.741 567.461 630.506 567.461 628.935C567.461 627.364 568.745 626.129 570.378 626.129C572.012 626.129 573.296 627.364 573.296 628.935Z" fill="#A630B0"/>
<path opacity="0.11" d="M694.886 628.935C694.886 630.506 693.603 631.741 691.969 631.741C690.335 631.741 689.052 630.506 689.052 628.935C689.052 627.364 690.335 626.129 691.969 626.129C693.603 626.129 694.886 627.364 694.886 628.935Z" fill="#A630B0"/>
<path opacity="0.11" d="M816.477 628.935C816.477 630.506 815.193 631.741 813.56 631.741C811.926 631.741 810.642 630.506 810.642 628.935C810.642 627.364 811.926 626.129 813.56 626.129C815.193 626.129 816.477 627.364 816.477 628.935Z" fill="#A630B0"/>
<path opacity="0.11" d="M938.067 628.935C938.067 630.506 936.784 631.741 935.15 631.741C933.516 631.741 932.233 630.506 932.233 628.935C932.233 627.364 933.516 626.129 935.15 626.129C936.784 626.129 938.067 627.364 938.067 628.935Z" fill="#A630B0"/>
<path opacity="0.11" d="M1059.66 628.935C1059.66 630.506 1058.37 631.741 1056.74 631.741C1055.11 631.741 1053.82 630.506 1053.82 628.935C1053.82 627.364 1055.11 626.129 1056.74 626.129C1058.37 626.129 1059.66 627.364 1059.66 628.935Z" fill="#A630B0"/>
<path opacity="0.11" d="M1181.25 628.935C1181.25 630.506 1179.96 631.741 1178.33 631.741C1176.7 631.741 1175.41 630.506 1175.41 628.935C1175.41 627.364 1176.7 626.129 1178.33 626.129C1179.96 626.129 1181.25 627.364 1181.25 628.935Z" fill="#A630B0"/>
<path opacity="0.11" d="M1302.84 628.935C1302.84 630.506 1301.56 631.741 1299.92 631.741C1298.29 631.741 1297 630.506 1297 628.935C1297 627.364 1298.29 626.129 1299.92 626.129C1301.56 626.129 1302.84 627.364 1302.84 628.935Z" fill="#A630B0"/>
</g>
<g opacity="0.11">
<path opacity="0.11" d="M86.9335 740.935C86.9335 742.506 85.6499 743.741 84.0162 743.741C82.3826 743.741 81.099 742.506 81.099 740.935C81.099 739.364 82.3826 738.129 84.0162 738.129C85.6499 738.129 86.9335 739.364 86.9335 740.935Z" fill="#A630B0"/>
<path opacity="0.11" d="M208.524 740.935C208.524 742.506 207.24 743.741 205.607 743.741C203.973 743.741 202.689 742.506 202.689 740.935C202.689 739.364 203.973 738.129 205.607 738.129C207.24 738.129 208.524 739.364 208.524 740.935Z" fill="#A630B0"/>
<path opacity="0.11" d="M330.115 740.935C330.115 742.506 328.831 743.741 327.197 743.741C325.564 743.741 324.28 742.506 324.28 740.935C324.28 739.364 325.564 738.129 327.197 738.129C328.831 738.129 330.115 739.364 330.115 740.935Z" fill="#A630B0"/>
<path opacity="0.11" d="M451.705 740.935C451.705 742.506 450.422 743.741 448.788 743.741C447.154 743.741 445.871 742.506 445.871 740.935C445.871 739.364 447.154 738.129 448.788 738.129C450.422 738.129 451.705 739.364 451.705 740.935Z" fill="#A630B0"/>
<path opacity="0.11" d="M573.296 740.935C573.296 742.506 572.012 743.741 570.378 743.741C568.745 743.741 567.461 742.506 567.461 740.935C567.461 739.364 568.745 738.129 570.378 738.129C572.012 738.129 573.296 739.364 573.296 740.935Z" fill="#A630B0"/>
<path opacity="0.11" d="M694.886 740.935C694.886 742.506 693.603 743.741 691.969 743.741C690.335 743.741 689.052 742.506 689.052 740.935C689.052 739.364 690.335 738.129 691.969 738.129C693.603 738.129 694.886 739.364 694.886 740.935Z" fill="#A630B0"/>
<path opacity="0.11" d="M816.477 740.935C816.477 742.506 815.193 743.741 813.56 743.741C811.926 743.741 810.642 742.506 810.642 740.935C810.642 739.364 811.926 738.129 813.56 738.129C815.193 738.129 816.477 739.364 816.477 740.935Z" fill="#A630B0"/>
<path opacity="0.11" d="M938.067 740.935C938.067 742.506 936.784 743.741 935.15 743.741C933.516 743.741 932.233 742.506 932.233 740.935C932.233 739.364 933.516 738.129 935.15 738.129C936.784 738.129 938.067 739.364 938.067 740.935Z" fill="#A630B0"/>
<path opacity="0.11" d="M1059.66 740.935C1059.66 742.506 1058.37 743.741 1056.74 743.741C1055.11 743.741 1053.82 742.506 1053.82 740.935C1053.82 739.364 1055.11 738.129 1056.74 738.129C1058.37 738.129 1059.66 739.364 1059.66 740.935Z" fill="#A630B0"/>
<path opacity="0.11" d="M1181.25 740.935C1181.25 742.506 1179.96 743.741 1178.33 743.741C1176.7 743.741 1175.41 742.506 1175.41 740.935C1175.41 739.364 1176.7 738.129 1178.33 738.129C1179.96 738.129 1181.25 739.364 1181.25 740.935Z" fill="#A630B0"/>
<path opacity="0.11" d="M1302.84 740.935C1302.84 742.506 1301.56 743.741 1299.92 743.741C1298.29 743.741 1297 742.506 1297 740.935C1297 739.364 1298.29 738.129 1299.92 738.129C1301.56 738.129 1302.84 739.364 1302.84 740.935Z" fill="#A630B0"/>
</g>
</g>
</g>
<path d="M1020.33 335.47C1020.33 335.47 991.161 393.939 913.212 356.119C835.264 318.188 828.962 279.695 679.483 316.841C530.004 353.987 475.743 351.743 443.77 309.098C411.797 266.453 351.469 207.311 224.044 213.595C96.5019 219.88 30.9224 74.1012 -61.029 50.5342C-152.98 26.855 -219.493 99.8005 -219.493 99.8005V850.353H1498.76C1498.76 850.353 1454.77 735.66 1356.28 700.758C1257.68 665.857 1271.8 642.29 1262.81 583.821C1253.71 525.353 1064.44 485.85 1077.63 399.999C1090.58 313.923 1020.33 335.47 1020.33 335.47Z" fill="#333333"/>
<path d="M-189.854 110.911C-179.236 105.188 7.23439 67.3684 65.9293 173.869C124.624 280.369 186.586 281.603 280.755 288.112C374.923 294.621 346.451 295.968 451.238 353.09C556.026 410.212 617.521 380.473 693.953 360.048C770.268 339.623 892.208 388.553 989.644 346.02C1087.08 303.487 1091.05 373.29 1091.05 373.29C1091.05 373.29 1063.98 434.228 1142.74 476.873C1221.62 519.518 1182.88 568.672 1204.82 646.555C1226.76 724.55 1440.18 840.029 1440.18 840.029L-228.945 766.634L-189.854 110.911Z" fill="#1A1A1A"/>
<path d="M-164.999 132.57C-164.999 132.57 -134.31 252.986 -5.1347 266.453C124.041 279.92 128.008 275.992 177.368 330.869C226.611 385.746 253.333 416.496 341.2 396.632C429.067 376.769 506.316 329.859 578.313 367.903C650.194 405.947 809.592 470.475 973.891 320.769C1138.19 171.063 1084.28 396.632 1084.28 396.632C1084.28 396.632 970.39 480.351 1136.44 555.653C1195.02 583.821 1185.45 667.652 1204.82 722.081C1224.07 776.509 1381.95 881.438 1381.95 881.438C1381.95 881.438 172.117 966.28 164.182 967.402C156.247 968.524 -295.575 757.992 -295.575 757.992L-164.999 132.57Z" fill="black"/>
<path d="M967.94 694.362C981.474 694.362 992.445 683.811 992.445 670.795C992.445 657.78 981.474 647.229 967.94 647.229C954.406 647.229 943.435 657.78 943.435 670.795C943.435 683.811 954.406 694.362 967.94 694.362Z" fill="url(#paint0_linear_97_160)"/>
<path d="M304.209 440.737C335.788 440.737 361.387 416.117 361.387 385.747C361.387 355.378 335.788 330.758 304.209 330.758C272.631 330.758 247.031 355.378 247.031 385.747C247.031 416.117 272.631 440.737 304.209 440.737Z" fill="url(#paint1_linear_97_160)"/>
<path d="M525.919 418.517L527.553 421.435L530.704 423.118L527.553 424.689L525.919 427.72L524.169 424.689L521.135 423.118L524.169 421.435L525.919 418.517Z" fill="#FEA7AF"/>
<path d="M705.738 621.642L706.788 623.549L708.772 624.56L706.788 625.682L705.738 627.59L704.571 625.682L702.588 624.56L704.571 623.549L705.738 621.642Z" fill="#FEA7AF"/>
<path d="M708.772 447.919L709.939 449.827L711.923 450.837L709.939 451.959L708.772 453.867L707.722 451.959L705.738 450.837L707.722 449.827L708.772 447.919Z" fill="#FEA7AF"/>
<path d="M256.483 705.697L257.533 707.717L259.634 708.727L257.533 709.737L256.483 711.757L255.433 709.737L253.333 708.727L255.433 707.717L256.483 705.697Z" fill="#FEA7AF"/>
<path opacity="0.29" d="M176.434 360.272L177.601 362.18L179.585 363.302L177.601 364.312L176.434 366.332L175.384 364.312L173.4 363.302L175.384 362.18L176.434 360.272Z" fill="white"/>
<path opacity="0.29" d="M59.0445 764.839L60.0947 766.747L62.0785 767.869L60.0947 768.879L59.0445 770.787L57.8776 768.879L55.8939 767.869L57.8776 766.747L59.0445 764.839Z" fill="white"/>
<path opacity="0.29" d="M73.9808 399.888L75.1477 401.796L77.1314 402.918L75.1477 403.928L73.9808 405.836L72.9306 403.928L70.9469 402.918L72.9306 401.796L73.9808 399.888Z" fill="white"/>
<path opacity="0.29" d="M325.447 483.27L326.497 485.177L328.481 486.3L326.497 487.31L325.447 489.217L324.28 487.31L322.296 486.3L324.28 485.177L325.447 483.27Z" fill="white"/>
<path opacity="0.29" d="M428.484 531.301L430.701 535.116L434.668 537.249L430.701 539.381L428.484 543.197L426.266 539.381L422.299 537.249L426.266 535.116L428.484 531.301Z" fill="#FEA7AF"/>
<path opacity="0.29" d="M97.9022 322.004L100.119 325.932L104.087 327.952L100.119 330.085L97.9022 333.9L95.8018 330.085L91.8344 327.952L95.8018 325.932L97.9022 322.004Z" fill="white"/>
<path opacity="0.29" d="M967.94 486.3L970.04 490.115L974.008 492.136L970.04 494.268L967.94 498.083L965.723 494.268L961.755 492.136L965.723 490.115L967.94 486.3Z" fill="white"/>
<path opacity="0.29" d="M109.921 699.973L110.971 701.769L112.839 702.779L110.971 703.677L109.921 705.584L108.871 703.677L107.004 702.779L108.871 701.769L109.921 699.973Z" fill="white"/>
<path opacity="0.29" d="M551.941 677.529L552.991 679.437L554.858 680.334L552.991 681.344L551.941 683.252L550.891 681.344L549.024 680.334L550.891 679.437L551.941 677.529Z" fill="#FEA7AF"/>
<path opacity="0.29" d="M576.213 760.687L577.263 762.483L579.247 763.493L577.263 764.503L576.213 766.298L575.279 764.503L573.296 763.493L575.279 762.483L576.213 760.687Z" fill="#FEA7AF"/>
<path opacity="0.29" d="M801.073 451.062L802.124 452.857L803.991 453.867L802.124 454.877L801.073 456.673L800.023 454.877L798.156 453.867L800.023 452.857L801.073 451.062Z" fill="#FEA7AF"/>
<path opacity="0.29" d="M919.513 624.784L920.564 626.579L922.547 627.589L920.564 628.599L919.513 630.395L918.58 628.599L916.596 627.589L918.58 626.579L919.513 624.784Z" fill="white"/>
<path opacity="0.29" d="M847.283 380.585L848.216 382.381L850.2 383.391L848.216 384.401L847.283 386.197L846.233 384.401L844.366 383.391L846.233 382.381L847.283 380.585Z" fill="white"/>
<path opacity="0.29" d="M603.518 512.224L605.385 515.478L608.769 517.386L605.385 519.182L603.518 522.436L601.651 519.182L598.15 517.386L601.651 515.478L603.518 512.224Z" fill="#FEA7AF"/>
<path d="M403.512 693.577L406.079 698.066L410.747 700.534L406.079 703.003L403.512 707.605L400.945 703.003L396.161 700.534L400.945 698.066L403.512 693.577Z" fill="white"/>
<path d="M811.342 695.709L812.276 697.28L813.909 698.178L812.276 699.076L811.342 700.647L810.409 699.076L808.775 698.178L810.409 697.28L811.342 695.709Z" fill="white"/>
<path opacity="0.33" d="M220.076 524.006L221.71 526.924L224.627 528.495L221.71 530.066L220.076 532.984L218.443 530.066L215.409 528.495L218.443 526.924L220.076 524.006Z" fill="#FEA7AF"/>
<path opacity="0.33" d="M708.772 702.33L710.055 704.462L712.156 705.585L710.055 706.707L708.772 708.727L707.605 706.707L705.505 705.585L707.605 704.462L708.772 702.33Z" fill="#FEA7AF"/>
<path opacity="0.33" d="M763.616 765.399L764.783 767.419L766.883 768.542L764.783 769.664L763.616 771.796L762.449 769.664L760.349 768.542L762.449 767.419L763.616 765.399Z" fill="#FEA7AF"/>
<path opacity="0.33" d="M756.965 534.106L758.132 536.127L760.349 537.249L758.132 538.371L756.965 540.391L755.798 538.371L753.698 537.249L755.798 536.127L756.965 534.106Z" fill="#FEA7AF"/>
<path opacity="0.33" d="M576.213 581.914L577.496 583.934L579.597 585.056L577.496 586.178L576.213 588.311L575.046 586.178L572.945 585.056L575.046 583.934L576.213 581.914Z" fill="#FEA7AF"/>
<path opacity="0.33" d="M1049.74 609.746L1050.91 611.766L1053.12 612.888L1050.91 614.122L1049.74 616.142L1048.57 614.122L1046.47 612.888L1048.57 611.766L1049.74 609.746Z" fill="#FEA7AF"/>
<g opacity="0.22">
<path opacity="0.22" d="M211.091 441.635C208.407 451.623 197.788 457.57 187.403 454.877C177.018 452.296 170.833 442.084 173.634 432.096C176.318 422.108 186.936 416.16 197.322 418.853C207.707 421.547 213.892 431.647 211.091 441.635Z" fill="url(#paint2_linear_97_160)"/>
<path opacity="0.22" d="M212.608 436.472C212.608 436.472 214.592 437.033 217.976 438.268C219.61 438.829 221.71 439.615 224.044 440.625C226.261 441.635 228.945 442.757 231.395 445.001C231.979 445.562 232.679 446.236 232.679 447.47C232.679 447.695 232.679 447.695 232.562 448.031L232.445 448.256C232.329 448.48 231.979 448.817 231.862 449.041C231.395 449.378 231.045 449.602 230.578 449.827C228.828 450.5 227.078 450.613 225.211 450.725C221.593 450.837 217.859 450.613 214.008 450.164C206.307 449.266 198.255 447.695 190.204 445.675C182.269 443.542 174.334 441.074 167.216 438.268C163.599 436.809 160.214 435.238 157.181 433.442C155.664 432.544 154.147 431.534 152.98 430.188C152.746 429.851 152.396 429.402 152.28 428.953C152.046 428.504 152.046 427.719 152.396 427.27C152.513 427.046 153.213 426.26 153.563 426.148C154.03 425.923 154.38 425.811 154.847 425.699C158.114 424.913 160.915 425.25 163.482 425.362C166.049 425.587 168.149 425.923 169.9 426.148C173.4 426.709 175.501 427.158 175.501 427.158C175.501 427.158 173.4 426.933 169.9 426.597C168.149 426.484 165.932 426.26 163.482 426.26C161.031 426.26 158.114 426.26 155.43 426.933C155.08 427.045 154.73 427.158 154.497 427.382C154.38 427.494 154.263 427.494 154.263 427.607C154.263 427.607 154.263 427.607 154.147 427.607C154.147 427.607 154.03 427.719 154.03 427.831C153.797 428.056 154.147 428.617 154.613 429.066C155.547 430.076 157.064 430.973 158.464 431.759C161.498 433.33 164.882 434.789 168.383 436.136C175.501 438.829 183.319 441.186 191.254 443.093C199.072 445.114 207.124 446.797 214.709 447.807C218.443 448.256 222.177 448.705 225.561 448.705C228.711 448.705 233.379 448.256 230.695 445.899C228.711 443.991 226.144 442.532 224.044 441.41C221.827 440.288 219.843 439.39 218.326 438.605C214.475 437.258 212.608 436.472 212.608 436.472Z" fill="url(#paint3_linear_97_160)"/>
</g>
<path d="M280.755 542.3L368.972 620.183C369.439 620.632 369.556 621.305 369.089 621.866C368.622 622.315 367.922 622.427 367.338 621.978L276.321 547.013C274.92 545.891 274.804 543.871 275.971 542.524C277.254 541.289 279.355 541.177 280.755 542.3Z" fill="url(#paint4_linear_97_160)"/>
<path d="M313.661 572.151L367.689 619.846C368.039 620.071 368.039 620.52 367.689 620.856C367.455 621.193 366.988 621.193 366.638 620.969L310.861 575.069C310.044 574.396 309.927 573.161 310.627 572.264C311.561 571.478 312.844 571.366 313.661 572.151Z" fill="url(#paint5_linear_97_160)"/>
<g opacity="0.33">
<path opacity="0.33" d="M751.947 451.734L794.306 489.105C794.539 489.329 794.539 489.666 794.306 489.89C794.072 490.115 793.722 490.115 793.489 489.89L749.847 453.866C749.147 453.305 749.147 452.295 749.73 451.734C750.314 451.173 751.247 451.173 751.947 451.734Z" fill="url(#paint6_linear_97_160)"/>
<path opacity="0.33" d="M767.817 466.099L793.722 488.992C793.839 489.105 793.839 489.329 793.722 489.441C793.605 489.554 793.372 489.554 793.255 489.441L766.533 467.446C766.067 467.109 766.067 466.548 766.417 466.099C766.767 465.762 767.35 465.65 767.817 466.099Z" fill="url(#paint7_linear_97_160)"/>
</g>
<g opacity="0.35">
<g opacity="0.35">
<path opacity="0.35" d="M102.336 513.344L219.493 616.814C220.193 617.375 220.193 618.385 219.609 619.059C219.026 619.732 217.976 619.732 217.392 619.171L96.6186 519.629C94.7515 518.057 94.5182 515.364 96.1518 513.681C97.7855 511.885 100.586 511.773 102.336 513.344Z" fill="url(#paint8_linear_97_160)"/>
<path opacity="0.35" d="M146.212 552.847L217.976 616.253C218.326 616.59 218.442 617.151 218.092 617.6C217.742 617.937 217.159 618.049 216.692 617.712L142.711 556.775C141.544 555.877 141.427 554.194 142.477 553.071C143.294 552.061 145.045 551.949 146.212 552.847Z" fill="url(#paint9_linear_97_160)"/>
</g>
<g opacity="0.35">
<path opacity="0.35" d="M62.3118 524.566L116.106 572.037C116.456 572.261 116.456 572.71 116.106 573.047C115.872 573.384 115.406 573.384 115.055 573.159L59.6279 527.484C58.8111 526.811 58.6944 525.576 59.3945 524.791C60.2114 523.893 61.495 523.781 62.3118 524.566Z" fill="url(#paint10_linear_97_160)"/>
<path opacity="0.35" d="M82.499 542.746L115.405 571.812C115.639 571.925 115.639 572.261 115.405 572.373C115.289 572.598 114.939 572.598 114.822 572.373L80.8654 544.43C80.3986 543.981 80.2819 543.195 80.7487 542.746C81.0987 542.297 81.9156 542.297 82.499 542.746Z" fill="url(#paint11_linear_97_160)"/>
</g>
</g>
<path d="M931.882 528.159L985.676 575.629C986.026 575.854 986.026 576.303 985.676 576.639C985.443 576.976 984.976 576.976 984.626 576.751L929.198 531.076C928.382 530.403 928.265 529.169 928.965 528.383C929.782 527.485 931.066 527.373 931.882 528.159Z" fill="url(#paint12_linear_97_160)"/>
<path d="M952.069 546.227L984.976 575.293C985.209 575.405 985.209 575.741 984.976 575.854C984.859 576.078 984.509 576.078 984.393 575.854L950.436 547.91C949.969 547.461 949.852 546.676 950.319 546.227C950.786 545.89 951.486 545.89 952.069 546.227Z" fill="url(#paint13_linear_97_160)"/>
<path d="M1121.71 289.581C1182.39 339.408 1174.69 443.777 1104.67 522.67C1034.54 601.563 928.587 625.018 867.909 575.191C807.23 525.363 814.932 420.995 884.945 342.102C954.959 263.209 1061.03 239.754 1121.71 289.581Z" fill="url(#paint14_radial_97_160)"/>
<path d="M1258.15 121.713C1310.54 164.695 1296.07 263.564 1226.06 342.457C1155.93 421.351 1056.74 450.417 1004.35 407.323C951.956 364.341 966.425 265.472 1036.44 186.579C1106.57 107.685 1205.87 78.7317 1258.15 121.713Z" fill="url(#paint15_radial_97_160)"/>
<path d="M1055.92 251.864L922.081 432.656L896.06 414.925L1029.9 234.132C1039.47 221.114 1051.14 209.668 1064.33 200.016L1075.41 191.936C1075.76 191.712 1075.99 191.487 1076.34 191.375C1079.85 189.804 1083.93 193.058 1082.65 196.874L1078.33 209.555C1073.08 224.593 1065.49 238.846 1055.92 251.864Z" fill="#700808"/>
<path d="M1049.39 247.375L915.663 428.167L896.176 414.812L1030.02 234.02C1039.59 221.002 1051.26 209.555 1064.44 199.904L1075.53 191.824C1075.88 191.599 1076.11 191.375 1076.46 191.263C1076.46 191.599 1076.34 191.936 1076.23 192.273L1071.91 204.954C1066.54 220.104 1059.07 234.357 1049.39 247.375Z" fill="#660606"/>
<path d="M1050.91 248.16L917.064 428.953L897.577 415.598L1031.42 234.806C1040.99 221.788 1052.66 210.341 1065.84 200.69L1076.93 192.609C1077.28 192.385 1077.51 192.161 1077.86 192.048C1077.86 192.385 1077.75 192.722 1077.63 193.058L1073.31 205.74C1068.06 220.89 1060.48 235.254 1050.91 248.16Z" fill="#8C0D0D"/>
<path d="M920.564 451.285L878.323 422.444L906.328 401.121L932.35 418.852L920.564 451.285Z" fill="url(#paint16_radial_97_160)"/>
<path d="M910.296 444.327L878.323 422.444L906.328 401.121L922.081 411.782L910.296 444.327Z" fill="#FF2424"/>
<path d="M912.513 445.562L878.323 422.443L908.545 402.355L924.298 413.017L912.513 445.562Z" fill="#660606"/>
<path d="M913.663 446.611L884.287 426.502L883.069 428.148L912.444 448.257L913.663 446.611Z" fill="#8C0D0D"/>
<path d="M932.35 418.852L906.328 401.121L906.912 400.335L932.934 418.067L932.35 418.852Z" fill="url(#paint17_radial_97_160)"/>
<path d="M1149.39 318.413L1015.55 499.205L989.528 481.474L1123.37 300.682C1132.94 287.664 1144.61 276.217 1157.79 266.566L1168.88 258.486C1169.23 258.261 1169.46 258.037 1169.81 257.924C1173.31 256.353 1177.4 259.608 1176.11 263.423L1171.8 276.105C1166.55 291.143 1159.08 305.395 1149.39 318.413Z" fill="#8C0D0D"/>
<path d="M1142.97 313.924L1009.13 494.716L989.645 481.362L1123.49 300.569C1133.06 287.551 1144.72 276.104 1157.91 266.453L1169 258.373C1169.35 258.149 1169.58 257.924 1169.93 257.812C1169.93 258.149 1169.81 258.485 1169.7 258.822L1165.38 271.503C1160.01 286.654 1152.54 301.018 1142.97 313.924Z" fill="#C90505"/>
<path d="M1143.56 314.598L1009.72 495.39L990.228 482.036L1124.07 301.243C1133.64 288.225 1145.31 276.778 1158.49 267.127L1169.58 259.047C1169.93 258.823 1170.16 258.598 1170.51 258.486C1170.51 258.823 1170.4 259.159 1170.28 259.496L1165.96 272.177C1160.71 287.215 1153.13 301.58 1143.56 314.598Z" fill="#C90505"/>
<path d="M1014.03 517.834L971.791 488.993L999.797 467.67L1025.82 485.402L1014.03 517.834Z" fill="#8C0D0D"/>
<path d="M1003.76 510.877L971.791 488.993L999.797 467.67L1015.55 478.332L1003.76 510.877Z" fill="#CC7DFF"/>
<path d="M1005.28 511.999L973.308 490.115L1001.43 468.792L1017.07 479.454L1005.28 511.999Z" fill="#660606"/>
<path d="M1007.14 513.148L977.765 493.039L976.547 494.684L1005.92 514.793L1007.14 513.148Z" fill="#660606"/>
<path d="M1025.82 485.402L999.796 467.671L1000.38 466.885L1026.4 484.617L1025.82 485.402Z" fill="url(#paint18_radial_97_160)"/>
<path d="M1161.06 257.475L981.359 500.215L903.877 447.133L1083.58 204.393C1103.07 178.133 1130.02 157.82 1161.29 146.037L1177.28 140.089C1185.22 137.059 1193.85 142.894 1193.5 151.199L1192.8 167.696C1191.52 200.016 1180.55 231.215 1161.06 257.475Z" fill="#C90505"/>
<path d="M1144.72 246.365L965.023 489.105L903.761 447.133L1083.46 204.393C1102.95 178.133 1129.91 157.82 1161.18 146.037L1177.16 140.089L1176.46 156.586C1175.3 188.794 1164.21 219.992 1144.72 246.365Z" fill="#C90505"/>
<path d="M1145.54 246.589L965.839 489.329L904.577 447.358L1084.28 204.618C1103.77 178.357 1130.72 158.045 1161.99 146.261L1177.98 140.313L1177.28 156.81C1176.11 189.019 1165.03 220.217 1145.54 246.589Z" fill="#FF2424"/>
<path d="M1155.11 216.738C1154.76 216.513 1154.41 216.289 1153.94 216.065C1153.83 215.952 1153.71 215.952 1153.59 215.84C1153.36 215.728 1153.01 215.616 1152.78 215.503C1152.66 215.391 1152.43 215.391 1152.31 215.391C1152.08 215.279 1151.73 215.167 1151.49 215.167C1151.38 215.167 1151.14 215.055 1151.03 215.055C1150.79 214.942 1150.44 214.942 1150.21 214.942C1149.98 214.942 1149.86 214.942 1149.63 214.83C1149.39 214.83 1149.04 214.83 1148.81 214.83C1148.58 214.83 1148.46 214.83 1148.23 214.83C1147.99 214.83 1147.64 214.83 1147.41 214.942C1147.18 214.942 1147.06 214.942 1146.83 215.055C1146.59 215.055 1146.36 215.167 1146.01 215.167C1145.78 215.167 1145.54 215.279 1145.31 215.279H1145.19C1144.84 215.391 1144.37 215.503 1144.02 215.728C1138.66 217.972 1133.41 220.441 1128.39 223.135C1104.82 235.704 1084.4 253.211 1068.64 274.533L1011.12 352.304L925.932 372.617L889.058 417.618L890.225 418.292L887.541 421.546L929.316 444.552L931.416 445.674L916.48 457.458C913.913 459.478 914.03 463.293 916.713 465.089L919.864 467.221L917.53 470.363L940.868 486.299L943.202 483.157L950.437 488.095L940.635 501.898C939.818 503.133 940.051 504.816 941.335 505.714C941.452 505.826 941.685 505.826 941.802 505.938C941.918 506.05 942.035 506.163 942.152 506.275C943.435 507.173 945.186 506.836 946.119 505.714L956.505 492.359L962.339 496.287L960.005 499.429L983.343 515.365L985.677 512.223L989.411 514.804C992.095 516.6 995.829 515.477 996.996 512.56L1003.76 495.053L1005.16 496.287L1041.8 527.036L1044.14 523.557L1044.26 523.67L1076.34 475.526L1068.53 392.929L1126.75 314.26C1136.32 301.355 1143.91 287.327 1149.51 272.513C1153.13 262.862 1155.93 252.986 1157.68 242.886C1158.61 237.499 1159.43 232 1159.78 226.501C1160.24 222.349 1158.14 218.87 1155.11 216.738Z" fill="#FF2424"/>
<path d="M956.621 454.203L878.323 415.823L916.48 366.893L1037.37 338.052L956.621 454.203Z" fill="#FF2424"/>
<path d="M958.138 455.887L881.24 413.579L915.08 370.821L1038.89 339.735L958.138 455.887Z" fill="#660606"/>
<path d="M968.057 461.948L1032.47 521.314L1067.01 469.803L1055.81 350.622L968.057 461.948Z" fill="#FF2424"/>
<path d="M955.221 458.13L919.98 438.715L878.322 415.822L915.079 370.82L977.508 355.894L1035.85 341.979L955.221 458.13Z" fill="#660606"/>
<path d="M919.98 438.715L878.322 415.821L915.079 370.819L977.508 355.894L919.98 438.715Z" fill="#8C0D0D"/>
<path d="M1032.47 521.312L995.828 490.563L965.606 465.2L1053.36 353.874L1058.72 410.771L1064.56 473.056L1032.47 521.312Z" fill="#660606"/>
<path d="M1032.47 521.311L995.829 490.562L1058.72 410.771L1064.56 473.055L1032.47 521.311Z" fill="#8C0D0D"/>
<path d="M1117.42 308.536L989.411 481.585L931.3 441.746L1059.31 268.697C1075.06 247.487 1095.48 229.868 1119.05 217.299C1124.19 214.605 1129.32 212.136 1134.69 209.892C1135.04 209.78 1135.51 209.555 1135.86 209.443C1139.36 208.321 1142.97 209.106 1145.77 211.014C1148.81 213.146 1150.79 216.625 1150.44 220.665C1149.98 226.164 1149.28 231.663 1148.34 237.05C1146.48 247.15 1143.79 257.138 1140.17 266.677C1134.57 281.603 1126.99 295.631 1117.42 308.536Z" fill="#8C0D0D"/>
<path d="M1102.83 298.549L974.825 471.598L931.3 441.858L1059.31 268.809C1075.06 247.599 1095.48 229.98 1119.05 217.411C1124.19 214.717 1129.32 212.249 1134.69 210.004C1135.04 209.892 1135.51 209.667 1135.86 209.555C1135.86 210.004 1135.86 210.341 1135.86 210.79C1135.39 216.289 1134.69 221.788 1133.76 227.174C1131.89 237.274 1129.21 247.262 1125.59 256.801C1119.99 271.615 1112.4 285.643 1102.83 298.549Z" fill="#C90505"/>
<path d="M1104.47 299.447L976.342 472.496L932.816 442.756L1060.82 269.707C1076.58 248.497 1097 230.878 1120.57 218.309C1125.7 215.615 1130.84 213.147 1136.21 210.902C1136.56 210.79 1137.02 210.565 1137.37 210.453C1137.37 210.902 1137.37 211.239 1137.37 211.688C1136.91 217.187 1136.21 222.686 1135.27 228.072C1133.41 238.172 1130.72 248.16 1127.1 257.699C1121.62 272.513 1114.04 286.541 1104.47 299.447Z" fill="url(#paint19_linear_97_160)"/>
<path d="M980.076 509.08L907.378 459.365C904.694 457.57 904.577 453.754 907.145 451.734L957.788 411.67C964.789 406.059 974.825 405.835 982.293 410.885L1003.3 425.249C1010.77 430.299 1013.68 439.502 1010.53 447.806L987.777 506.948C986.494 509.866 982.759 510.988 980.076 509.08Z" fill="#FF2424"/>
<path d="M1007.73 450.611L985.443 508.631C984.277 511.549 980.542 512.671 977.975 510.875L945.302 488.543L940.051 484.952L906.561 462.058C903.994 460.262 903.761 456.559 906.328 454.539L956.038 415.261C962.922 409.762 972.841 409.425 980.076 414.475L986.727 419.076L994.895 424.687L1000.73 428.728C1007.96 433.553 1010.88 442.643 1007.73 450.611Z" fill="#8C0D0D"/>
<path d="M931.382 478.913L908.09 462.968L905.722 466.168L929.013 482.113L931.382 478.913Z" fill="#C90505"/>
<path d="M973.861 507.976L950.569 492.032L948.201 495.232L971.492 511.176L973.861 507.976Z" fill="#C90505"/>
<path d="M1120.1 271.502C1119.52 271.165 1119.17 270.492 1119.05 269.819C1117.19 259.157 1106.57 251.863 1095.48 253.658C1094.08 253.883 1092.68 252.985 1092.45 251.526C1092.21 250.18 1093.15 248.833 1094.66 248.608C1108.67 246.364 1122.09 255.454 1124.42 269.033C1124.65 270.38 1123.72 271.726 1122.2 271.951C1121.39 272.063 1120.69 271.951 1120.1 271.502Z" fill="#8C0D0D"/>
<path d="M1148.34 237.162C1144.26 226.052 1134.81 219.319 1119.05 217.411C1124.19 214.717 1129.32 212.249 1134.69 210.004C1138.54 208.433 1142.74 208.994 1145.78 211.126C1148.81 213.259 1150.79 216.737 1150.44 220.777C1150.09 226.276 1149.39 231.775 1148.34 237.162Z" fill="#8C0D0D"/>
<path opacity="0.6" d="M996.879 421.883L994.779 424.576L945.186 488.543L939.935 484.952L986.61 418.965L988.594 416.159C993.145 416.159 995.595 418.404 996.879 421.883Z" fill="#660606"/>
<path d="M986.96 414.7C991.511 414.588 993.845 416.833 995.245 420.312L934.217 499.093C933.283 500.327 931.533 500.551 930.249 499.654C928.966 498.756 928.616 497.072 929.549 495.838L986.96 414.7Z" fill="#660606"/>
<path d="M419.149 701.207C419.149 709.736 411.914 716.694 403.046 716.694C394.177 716.694 386.942 709.736 386.942 701.207C386.942 692.678 394.177 685.721 403.046 685.721C411.914 685.721 419.149 692.678 419.149 701.207Z" fill="url(#paint20_radial_97_160)"/>
<path d="M542.49 422.781C542.49 431.31 535.255 438.268 526.386 438.268C517.518 438.268 510.283 431.31 510.283 422.781C510.283 414.252 517.518 407.294 526.386 407.294C535.255 407.406 542.49 414.252 542.49 422.781Z" fill="url(#paint21_radial_97_160)"/>
</g>
<defs>
<linearGradient id="paint0_linear_97_160" x1="956.578" y1="651.74" x2="978.071" y2="690.896" gradientUnits="userSpaceOnUse">
<stop offset="0.00537634" stop-color="#FFA6A6"/>
<stop offset="0.1746" stop-color="#FF7777"/>
<stop offset="0.3526" stop-color="#FF4C4C"/>
<stop offset="0.526" stop-color="#FF2B2B"/>
<stop offset="0.6908" stop-color="#FF1313"/>
<stop offset="0.8438" stop-color="#FF0505"/>
<stop offset="0.9731" stop-color="#FF0000"/>
</linearGradient>
<linearGradient id="paint1_linear_97_160" x1="277.967" y1="341.417" x2="327.981" y2="432.537" gradientUnits="userSpaceOnUse">
<stop offset="0.00537634" stop-color="#FFA6A6"/>
<stop offset="0.1746" stop-color="#FF7777"/>
<stop offset="0.3526" stop-color="#FF4C4C"/>
<stop offset="0.526" stop-color="#FF2B2B"/>
<stop offset="0.6908" stop-color="#FF1313"/>
<stop offset="0.8438" stop-color="#FF0505"/>
<stop offset="0.9731" stop-color="#FF0000"/>
</linearGradient>
<linearGradient id="paint2_linear_97_160" x1="174.178" y1="443.282" x2="210.262" y2="429.587" gradientUnits="userSpaceOnUse">
<stop offset="0.00537634" stop-color="#FEA7AF"/>
<stop offset="0.9731" stop-color="#EA47AC"/>
</linearGradient>
<linearGradient id="paint3_linear_97_160" x1="151.62" y1="428.429" x2="231.755" y2="450.458" gradientUnits="userSpaceOnUse">
<stop offset="0.00537634" stop-color="#FEA7AF"/>
<stop offset="0.9731" stop-color="#EA47AC"/>
</linearGradient>
<linearGradient id="paint4_linear_97_160" x1="368.991" y1="621.972" x2="279.264" y2="539.094" gradientUnits="userSpaceOnUse">
<stop offset="0.00537634" stop-color="#FEA7AF"/>
<stop offset="0.9946" stop-color="#EA47AC" stop-opacity="0"/>
</linearGradient>
<linearGradient id="paint5_linear_97_160" x1="367.795" y1="620.948" x2="312.81" y2="570.161" gradientUnits="userSpaceOnUse">
<stop offset="0.00537634" stop-color="#FEA7AF"/>
<stop offset="0.9946" stop-color="#EA47AC" stop-opacity="0"/>
</linearGradient>
<linearGradient id="paint6_linear_97_160" x1="794.329" y1="489.969" x2="751.248" y2="450.178" gradientUnits="userSpaceOnUse">
<stop offset="0.00537634" stop-color="#FEA7AF"/>
<stop offset="0.9946" stop-color="#EA47AC" stop-opacity="0"/>
</linearGradient>
<linearGradient id="paint7_linear_97_160" x1="793.754" y1="489.477" x2="767.354" y2="465.093" gradientUnits="userSpaceOnUse">
<stop offset="0.00537634" stop-color="#FEA7AF"/>
<stop offset="0.9946" stop-color="#EA47AC" stop-opacity="0"/>
</linearGradient>
<linearGradient id="paint8_linear_97_160" x1="219.561" y1="619.049" x2="100.426" y2="509.009" gradientUnits="userSpaceOnUse">
<stop offset="0.00537634" stop-color="#FEA7AF"/>
<stop offset="0.9946" stop-color="#EA47AC" stop-opacity="0"/>
</linearGradient>
<linearGradient id="paint9_linear_97_160" x1="217.972" y1="617.691" x2="144.966" y2="550.258" gradientUnits="userSpaceOnUse">
<stop offset="0.00537634" stop-color="#FEA7AF"/>
<stop offset="0.9946" stop-color="#EA47AC" stop-opacity="0"/>
</linearGradient>
<linearGradient id="paint10_linear_97_160" x1="116.122" y1="573.044" x2="61.4601" y2="522.555" gradientUnits="userSpaceOnUse">
<stop offset="0.00537634" stop-color="#FEA7AF"/>
<stop offset="0.9946" stop-color="#EA47AC" stop-opacity="0"/>
</linearGradient>
<linearGradient id="paint11_linear_97_160" x1="115.393" y1="572.42" x2="81.8961" y2="541.48" gradientUnits="userSpaceOnUse">
<stop offset="0.00537634" stop-color="#FEA7AF"/>
<stop offset="0.9946" stop-color="#EA47AC" stop-opacity="0"/>
</linearGradient>
<linearGradient id="paint12_linear_97_160" x1="985.705" y1="576.632" x2="931.043" y2="526.143" gradientUnits="userSpaceOnUse">
<stop offset="0.00537634" stop-color="#FEA7AF"/>
<stop offset="0.9946" stop-color="#EA47AC" stop-opacity="0"/>
</linearGradient>
<linearGradient id="paint13_linear_97_160" x1="984.976" y1="576.009" x2="951.479" y2="545.069" gradientUnits="userSpaceOnUse">
<stop offset="0.00537634" stop-color="#FEA7AF"/>
<stop offset="0.9946" stop-color="#EA47AC" stop-opacity="0"/>
</linearGradient>
<radialGradient id="paint14_radial_97_160" cx="0" cy="0" r="1" gradientUnits="userSpaceOnUse" gradientTransform="translate(994.766 432.377) rotate(-48.3753) scale(191.026 142.073)">
<stop stop-color="#FF2424"/>
<stop offset="0.00566745" stop-color="#FF2727"/>
<stop offset="0.1077" stop-color="#FF5959"/>
<stop offset="0.2148" stop-color="#FF8686"/>
<stop offset="0.325" stop-color="#FFABAB"/>
<stop offset="0.4391" stop-color="#FFCACA" stop-opacity="0.04"/>
<stop offset="0.5583" stop-color="#FFE1E1" stop-opacity="0.03"/>
<stop offset="0.685" stop-color="#FFF2F2" stop-opacity="0.02"/>
<stop offset="0.8242" stop-color="#FFFCFC" stop-opacity="0"/>
<stop offset="1" stop-color="white" stop-opacity="0"/>
</radialGradient>
<radialGradient id="paint15_radial_97_160" cx="0" cy="0" r="1" gradientUnits="userSpaceOnUse" gradientTransform="translate(1131.31 264.497) rotate(-48.3753) scale(191.012 122.61)">
<stop stop-color="#FF2424"/>
<stop offset="0.00566745" stop-color="#FF2727"/>
<stop offset="0.1077" stop-color="#FF5959"/>
<stop offset="0.2148" stop-color="#FF8686"/>
<stop offset="0.325" stop-color="#FFABAB"/>
<stop offset="0.4391" stop-color="#FFCACA"/>
<stop offset="0.5583" stop-color="#FFE1E1"/>
<stop offset="0.685" stop-color="#FFF2F2"/>
<stop offset="0.8242" stop-color="#FFFCFC"/>
<stop offset="1" stop-color="white"/>
</radialGradient>
<radialGradient id="paint16_radial_97_160" cx="0" cy="0" r="1" gradientUnits="userSpaceOnUse" gradientTransform="translate(900.603 382.978) rotate(34.3937) scale(64.0691 63.213)">
<stop offset="0.00537634" stop-color="#A02CC2"/>
<stop offset="1" stop-color="#371582"/>
</radialGradient>
<radialGradient id="paint17_radial_97_160" cx="0" cy="0" r="1" gradientUnits="userSpaceOnUse" gradientTransform="translate(904.275 398.128) rotate(34.3948) scale(30.7685 15.4052)">
<stop stop-color="#371582"/>
<stop offset="0.9946" stop-color="#A02CC2"/>
</radialGradient>
<radialGradient id="paint18_radial_97_160" cx="0" cy="0" r="1" gradientUnits="userSpaceOnUse" gradientTransform="translate(997.768 464.684) rotate(34.3948) scale(30.7685 15.4052)">
<stop stop-color="#371582"/>
<stop offset="0.9946" stop-color="#A02CC2"/>
</radialGradient>
<linearGradient id="paint19_linear_97_160" x1="1024.34" y1="319.145" x2="1066.68" y2="350.48" gradientUnits="userSpaceOnUse">
<stop offset="0.00537634" stop-color="#FF0000"/>
<stop offset="0.2076" stop-color="#EA0202"/>
<stop offset="0.4552" stop-color="#D80404"/>
<stop offset="0.7141" stop-color="#CD0505"/>
<stop offset="1" stop-color="#C90505"/>
</linearGradient>
<radialGradient id="paint20_radial_97_160" cx="0" cy="0" r="1" gradientUnits="userSpaceOnUse" gradientTransform="translate(403.093 701.153) scale(16.0468 15.4327)">
<stop offset="0.00537634" stop-color="#DE3DBF"/>
<stop offset="0.103" stop-color="#B03097"/>
<stop offset="0.2169" stop-color="#822470"/>
<stop offset="0.335" stop-color="#5A194D"/>
<stop offset="0.4556" stop-color="#391031"/>
<stop offset="0.5794" stop-color="#20091C"/>
<stop offset="0.7078" stop-color="#0E040C"/>
<stop offset="0.8438" stop-color="#030103"/>
<stop offset="1"/>
</radialGradient>
<radialGradient id="paint21_radial_97_160" cx="0" cy="0" r="1" gradientUnits="userSpaceOnUse" gradientTransform="translate(526.394 422.797) scale(16.0468 15.4327)">
<stop offset="0.00537634" stop-color="#DE3DBF"/>
<stop offset="0.103" stop-color="#B03097"/>
<stop offset="0.2169" stop-color="#822470"/>
<stop offset="0.335" stop-color="#5A194D"/>
<stop offset="0.4556" stop-color="#391031"/>
<stop offset="0.5794" stop-color="#20091C"/>
<stop offset="0.7078" stop-color="#0E040C"/>
<stop offset="0.8438" stop-color="#030103"/>
<stop offset="1"/>
</radialGradient>
</defs>
</svg>
